<?xml version="1.0" standalone="no"?><!DOCTYPE svg PUBLIC "-//W3C//DTD SVG 1.1//EN" "http://www.w3.org/Graphics/SVG/1.1/DTD/svg11.dtd"><svg t="1638938903094" class="icon" viewBox="0 0 1024 1024" version="1.1" xmlns="http://www.w3.org/2000/svg" p-id="9387" width="32" height="32" xmlns:xlink="http://www.w3.org/1999/xlink"><defs><style type="text/css"></style></defs><path d="M21.333333 533.333333h981.333334a21.333333 21.333333 0 0 1 20.693333 26.517334l-5.184 20.672a106.666667 106.666667 0 0 1-114.026667 80.277333l-102.890666-10.261333a106.688 106.688 0 0 1-90.581334-72.405334l-0.704-2.133333h-28.48A192 192 0 0 1 490.666667 746.666667H192a192 192 0 0 1-192-192 21.333333 21.333333 0 0 1 21.333333-21.333334z m617.173334 42.666667H44.16A149.376 149.376 0 0 0 192 704h298.666667a149.376 149.376 0 0 0 147.84-128z m117.717333 0a64 64 0 0 0 49.28 32.085333l102.890667 10.261334A64 64 0 0 0 975.04 576H756.224zM277.333333 384v-21.333333h-21.333333a21.333333 21.333333 0 0 1-21.333333-21.333334v-21.333333a64 64 0 0 1 64-64h85.333333a64 64 0 0 1 64 64v21.333333a21.333333 21.333333 0 0 1-21.333333 21.333334h-21.333334v21.333333h192a85.333333 85.333333 0 0 1 85.333334 85.333333 21.333333 21.333333 0 0 1-21.333334 21.333334H21.333333a21.333333 21.333333 0 0 1-21.333333-21.333334 85.333333 85.333333 0 0 1 85.333333-85.333333h192z m320 42.666667H85.333333a42.666667 42.666667 0 0 0-36.949333 21.333333h585.898667A42.666667 42.666667 0 0 0 597.333333 426.666667z m-234.666666-42.666667v-42.666667a21.333333 21.333333 0 0 1 21.333333-21.333333h21.333333a21.333333 21.333333 0 0 0-21.333333-21.333333h-85.333333a21.333333 21.333333 0 0 0-21.333334 21.333333h21.333334a21.333333 21.333333 0 0 1 21.333333 21.333333v42.666667h42.666667z" fill="#707070" p-id="9388"></path></svg>