<?xml version="1.0" standalone="no"?><!DOCTYPE svg PUBLIC "-//W3C//DTD SVG 1.1//EN" "http://www.w3.org/Graphics/SVG/1.1/DTD/svg11.dtd"><svg t="1638939234277" class="icon" viewBox="0 0 1024 1024" version="1.1" xmlns="http://www.w3.org/2000/svg" p-id="11586" xmlns:xlink="http://www.w3.org/1999/xlink" width="32" height="32"><defs><style type="text/css"></style></defs><path d="M635.442 923.993h-0.005c-15.2-0.005-29.978-6.29-39.523-16.822-13.002-14.256-54.202-51.326-87.928-51.326-33.492 0-75.331 37.287-87.347 50.346-9.522 10.353-24.196 16.534-39.25 16.534-7.174 0-13.938-1.377-20.119-4.09l-1.08-0.476-102.51-57.325-1.017-0.71c-18.663-13.062-25.765-38.616-16.517-59.433 0.071-0.16 9.456-21.815 9.456-41.557 0-59.914-48.748-108.662-108.662-108.662h-3.635c-0.22 0.005-0.442 0.009-0.658 0.009-17.165 0-31.139-15.248-35.606-38.842-0.356-1.889-8.746-46.644-8.746-81.907 0-35.262 8.39-80.022 8.746-81.91 4.52-23.896 18.8-39.246 36.264-38.833h3.635c59.914 0 108.662-48.748 108.662-108.662 0-19.737-9.38-41.388-9.478-41.604-9.235-20.8-2.087-46.348 16.656-59.37l1.062-0.736 108.183-59.426 1.127-0.479c6.093-2.598 12.764-3.913 19.832-3.913 15.023 0 29.725 6.045 39.335 16.172 12.805 13.406 53.277 48.274 86.035 48.274 32.45 0 72.677-34.176 85.439-47.348 9.554-9.921 24.153-15.863 39.025-15.863 7.21 0 14.008 1.362 20.199 4.054l1.094 0.48 104.492 58.048 1.028 0.723c18.695 13.044 25.816 38.597 16.563 59.43-0.071 0.16-9.456 21.814-9.456 41.557 0 59.914 48.748 108.662 108.663 108.662h3.634c17.442-0.39 31.74 14.933 36.263 38.832 0.358 1.89 8.748 46.645 8.748 81.908 0 35.262-8.39 80.021-8.753 81.91-4.518 23.896-18.816 39.19-36.263 38.833h-3.63c-59.915 0-108.663 48.748-108.663 108.662 0 19.737 9.38 41.382 9.475 41.599 9.23 20.785 2.1 46.338-16.61 59.373l-1.047 0.733-106.252 58.725-1.109 0.48c-6.078 2.62-12.726 3.95-19.752 3.95z m-3.227-50.059c0.475 0.31 1.818 0.836 3.227 0.836 0.057 0 0.112 0 0.16-0.005l99.272-54.864c-2.396-5.567-13.354-32.586-13.354-60.764 0-84.279 66.382-153.349 149.603-157.67 1.197-6.613 7.699-43.821 7.699-71.737 0-27.91-6.5-65.104-7.699-71.737-83.221-4.321-149.603-73.39-149.603-157.669 0-28.222 10.99-55.273 13.368-60.798l-97.66-54.257c-0.113-0.006-0.25-0.014-0.41-0.014-1.663 0-3.219 0.606-3.734 0.954-1.64 1.685-15.798 16.04-36.132 30.344-30.1 21.175-58.56 31.913-84.599 31.913-26.29 0-54.981-10.948-85.274-32.542-20.461-14.58-34.68-29.213-36.324-30.928-0.521-0.352-2.095-0.977-3.772-0.977-0.131 0-0.249 0.005-0.348 0.01l-101.155 55.56c2.424 5.638 13.34 32.61 13.34 60.737 0 84.279-66.381 153.347-149.603 157.669-1.197 6.619-7.698 43.822-7.698 71.737 0 27.912 6.501 65.1 7.704 71.733 83.217 4.325 149.598 73.39 149.598 157.669 0 28.278-11.035 55.376-13.383 60.829l95.74 53.534c0.06 0.005 0.131 0.005 0.211 0.005 1.4 0 2.725-0.511 3.2-0.816 1.79-1.922 16.088-17.057 36.685-32.154 30.7-22.5 59.876-33.909 86.713-33.909 27.094 0 56.488 11.626 87.368 34.558 20.715 15.382 35.075 30.8 36.86 32.753zM508.338 673.891c-79.793 0-144.708-64.916-144.708-144.71 0-79.792 64.916-144.707 144.708-144.707 79.793 0 144.714 64.915 144.714 144.707 0 79.794-64.921 144.71-144.714 144.71z m0-240.195c-52.652 0-95.486 42.834-95.486 95.485 0 52.654 42.834 95.492 95.486 95.492s95.491-42.838 95.491-95.492c0-52.65-42.834-95.485-95.491-95.485z m0 0" p-id="11587" fill="#707070"></path></svg>